<svg xmlns="http://www.w3.org/2000/svg" width="16" height="16" viewBox="0 0 16 16">
  <!-- 基础Texture2D图标 -->
  <g fill="white">
    <path d="M2 1a1 1 0 0 0-1 1v12a1 1 0 0 0 1 1h12a1 1 0 0 0 1-1V2a1 1 0 0 0-1-1zm1 2h10v8H3z"/>
    <path fill-opacity=".2" d="M3.5 3.5h9v7h-9"/>
  </g>
  
  <!-- 简洁的下载箭头 -->
  <g transform="translate(4, 3)" fill="white">
    <!-- 箭头主体 -->
    <path d="M3,4 L3,1 L5,1 L5,4 L6,4 L4,6 L2,4 Z"/>
    <!-- 箭头底部横线 -->
    <rect x="1" y="6" width="5" height="1"/>
  </g>
</svg>